<svg width="21" height="21" viewBox="0 0 21 21" fill="none" xmlns="http://www.w3.org/2000/svg">
<g clip-path="url(#clip0)">
<path d="M20.6015 6.55036L11.0039 0.151925C10.6763 -0.0496669 10.3267 -0.0515126 9.99608 0.151925L0.398426 6.55036C0.152332 6.71438 0 7.0074 0 7.30033V13.6987C0 13.9917 0.152332 14.2847 0.398467 14.4487L9.99612 20.8481C10.3237 21.0497 10.6733 21.0515 11.0039 20.8481L20.6016 14.4487C20.8477 14.2847 21 13.9917 21 13.6987V7.30033C21 7.0074 20.8477 6.71438 20.6015 6.55036V6.55036ZM11.4023 2.58936L18.4688 7.30033L15.3164 9.40973L11.4023 6.79642V2.58936V2.58936ZM9.59766 2.58936V6.79642L5.68358 9.40973L2.53124 7.30033L9.59766 2.58936V2.58936ZM1.80469 8.98784L4.06641 10.4996L1.80469 12.0113V8.98784ZM9.59766 18.4097L2.53124 13.6988L5.68358 11.5894L9.59766 14.2027V18.4097ZM10.5 12.6324L7.31247 10.4996L10.5 8.36674L13.6875 10.4996L10.5 12.6324ZM11.4023 18.4097V14.2027L15.3164 11.5894L18.4688 13.6988L11.4023 18.4097V18.4097ZM19.1953 12.0113L16.9336 10.4996L19.1953 8.98784V12.0113Z" fill="black"/>
</g>
<defs>
<clipPath id="clip0">
<rect width="21" height="21" fill="white"/>
</clipPath>
</defs>
</svg>
