<svg width="20" height="20" viewBox="0 0 20 20" fill="none" xmlns="http://www.w3.org/2000/svg">
<path fill-rule="evenodd" clip-rule="evenodd" d="M15 9.75002C15 11.4923 13.7666 12.9898 12.0014 13.6459C12.0848 14.2873 12.2108 15.2022 12.2909 15.5551C12.5165 16.5493 12.8105 17.1999 12.9713 17.4301C15.9183 16.2505 18 13.3684 18 10C18 5.58174 14.4183 2.00003 10 2.00003C5.58173 2.00003 2.00001 5.58174 2.00001 10C2.00001 13.3794 4.0954 16.2694 7.05781 17.4416C7.09911 17.3913 7.16163 17.3028 7.24276 17.1554C7.44795 16.7827 7.6297 16.2222 7.77492 15.5342C7.78763 15.474 7.80219 15.3995 7.81797 15.3144C7.50779 15.4257 7.16178 15.4856 6.78235 15.4856C5.8071 15.4856 4.9899 15.0994 4.3473 14.4748C3.97231 14.1104 3.72858 13.7446 3.5936 13.4664C3.35251 12.9696 3.55987 12.3713 4.05676 12.1302C4.55364 11.8891 5.15189 12.0965 5.39298 12.5934C5.43458 12.6791 5.55463 12.8593 5.74127 13.0407C6.03472 13.3259 6.37269 13.4856 6.78235 13.4856C7.03323 13.4856 7.19525 13.434 7.31393 13.3353C5.92264 12.5806 5 11.2569 5 9.75C5 9.17813 5.13288 8.63264 5.37383 8.13462L5.02451 5.75142C4.94403 5.20235 5.30898 4.89415 5.83881 5.05744L8.19781 5.78445C8.75692 5.60074 9.36462 5.5 10 5.5C10.6326 5.5 11.2377 5.59985 11.7948 5.78202L14.1459 5.05744C14.6757 4.89416 15.0407 5.20235 14.9602 5.75142L14.6144 8.11052C14.8628 8.61502 15 9.16889 15 9.75L15 9.75002ZM9.7318 15.9473C9.56711 16.7275 9.36514 17.4036 9.10439 17.9504C9.39841 17.9832 9.69724 18 10 18C10.3272 18 10.6497 17.9804 10.9666 17.9422C10.7139 17.4079 10.5117 16.7524 10.3405 15.9976C10.2554 15.6225 10.1267 14.7047 10.0342 13.9999C10.0259 14 10.0175 14 10.0092 14C9.93398 14.6424 9.81869 15.5356 9.7318 15.9473H9.7318ZM10 20C4.47715 20 0 15.5229 0 10C0 4.47715 4.47715 0 10 0C15.5229 0 20 4.47715 20 10C20 14.4414 17.1045 18.2065 13.0983 19.5107C12.0956 19.8328 11.0674 20 10 20L10 20ZM7 10.5C7 11.3267 7.67093 12 8.49857 12H11.5014C12.3292 12 13 11.3284 13 10.5C13 9.67326 12.3291 9 11.5014 9H8.49857C7.67081 9 7 9.67158 7 10.5Z" fill="black"/>
</svg>
