<svg width="24" height="24" viewBox="0 0 24 24" fill="none" xmlns="http://www.w3.org/2000/svg">
<path fill-rule="evenodd" clip-rule="evenodd" d="M6.99526 2H17.0048C19.7636 2 22 4.23604 22 6.99525V17.0048C22 19.7636 19.764 22 17.0048 22H6.99526C4.23646 22 2 19.764 2 17.0048V6.99525C2 4.23645 4.23604 2 6.99526 2V2ZM4 17.0047C4 18.6592 5.34085 20 6.99526 20H17.0048C18.6592 20 20 18.6592 20 17.0047V6.99525C20 5.34077 18.6592 3.99999 17.0048 3.99999H6.99526C5.34078 3.99999 4 5.34085 4 6.99525V17.0047V17.0047ZM7 12C7 9.23857 9.23857 7 12 7C14.7614 7 17 9.23857 17 12C17 14.7614 14.7614 17 12 17C9.23857 17 7 14.7614 7 12V12ZM15 12C15 10.3431 13.6569 9 12 9C10.3431 9 9 10.3431 9 12C9 13.6569 10.3431 15 12 15C13.6569 15 15 13.6569 15 12ZM17 8C16.4477 8 16 7.55229 16 7C16 6.44771 16.4477 6 17 6C17.5523 6 18 6.44771 18 7C18 7.55229 17.5523 8 17 8Z" fill="black"/>
</svg>
