<svg width="22" height="22" viewBox="0 0 22 22" fill="none" xmlns="http://www.w3.org/2000/svg">
<path fill-rule="evenodd" clip-rule="evenodd" d="M12.8333 12.2964L11.6482 13.4815C11.2902 13.8395 10.7098 13.8395 10.3518 13.4815L9.16667 12.2964L4.04342 17.4196L17.9537 17.4168L12.8333 12.2964H12.8333ZM19.2501 5.87964L14.1297 11L19.2497 16.12L19.25 5.87964H19.2501ZM7.87033 11L2.75029 5.87996L2.75 16.1204L7.87037 11H7.87033ZM11 11.5673L17.9607 4.58038L4.04216 4.58322L11 11.5673V11.5673ZM2.75085 2.75002H19.2492C20.2622 2.75002 21.0834 3.56826 21.0834 4.57886V17.4212C21.0834 18.4312 20.2615 19.25 19.2492 19.25H2.75085C1.73787 19.25 0.916687 18.4318 0.916687 17.4212V4.57886C0.916687 3.56882 1.73852 2.75002 2.75085 2.75002V2.75002Z" fill="black"/>
</svg>
