<svg width="24" height="24" viewBox="0 0 24 24" fill="none" xmlns="http://www.w3.org/2000/svg">
<path fill-rule="evenodd" clip-rule="evenodd" d="M14.7694 3.92203C15.0895 3.20261 15.9241 2.83099 16.6697 3.07549L19.0727 3.86352L21.2932 4.54464C21.7132 4.67348 22 5.06135 22 5.50068V20.0007C22 20.6832 21.3313 21.1652 20.6838 20.9494L10.1788 17.448C9.97864 17.3812 9.80471 17.2529 9.68189 17.0813L9.02333 16.1614L9.02725 19.6321C9.02832 20.5875 8.15078 21.2298 7.24336 20.9313L3.17028 19.5915C2.49766 19.3702 2.01091 18.6929 2.01037 17.9839L2 4.37285C1.99927 3.41839 2.87558 2.77585 3.78272 3.07333L7.85145 4.40762C8.18794 4.51797 8.47788 4.74252 8.68378 5.02813L11.9324 10.2993L14.7695 3.92203L14.7694 3.92203ZM15.2704 15.719L19.532 6.11748L16.4367 5.09486L13.2033 12.3629L15.2704 15.719V15.719ZM20 18.6202V10.0002L16.6643 17.5093L20 18.6202V18.6202ZM11.1281 15.6657L13.3429 16.4032L9.01564 9.37728L9.01941 12.72L11.1281 15.6657L11.1281 15.6657ZM4.00062 5.26671L4.0021 17.7606L6.99994 18.7589V6.23886L4.00062 5.26673L4.00062 5.26671Z" fill="black"/>
</svg>
